HIERARCHY
ROOT Hips
{
	OFFSET 0.00000 0.00000 0.00000
	CHANNELS 6 Xposition Yposition Zposition Zrotation Yrotation Xrotation 
	JOINT LHipJoint
	{
		OFFSET 0 0 0
		CHANNELS 3 Zrotation Yrotation Xrotation
		JOINT LeftHip
		{
			OFFSET 1.34019 -1.87553 0.90315
			CHANNELS 3 Zrotation Yrotation Xrotation
			JOINT LeftKnee
			{
				OFFSET 2.55316 -7.01474 0.00000
				CHANNELS 3 Zrotation Yrotation Xrotation
				JOINT LeftAnkle
				{
					OFFSET 2.64657 -7.27139 0.00000
					CHANNELS 3 Zrotation Yrotation Xrotation
					JOINT LeftToe
					{
						OFFSET 0.24207 -0.66507 2.14489
						CHANNELS 3 Zrotation Yrotation Xrotation
						End Site
						{
							OFFSET 0.00000 -0.00000 1.12451
						}
					}
				}
			}
		}
	}
	JOINT RHipJoint
	{
		OFFSET 0 0 0
		CHANNELS 3 Zrotation Yrotation Xrotation
		JOINT RightHip
		{
			OFFSET -1.28320 -1.87553 0.90315
			CHANNELS 3 Zrotation Yrotation Xrotation
			JOINT RightKnee
			{
				OFFSET -2.60484 -7.15674 0.00000
				CHANNELS 3 Zrotation Yrotation Xrotation
				JOINT RightAnkle
				{
					OFFSET -2.60296 -7.15159 0.00000
					CHANNELS 3 Zrotation Yrotation Xrotation
					JOINT RightToe
					{
						OFFSET -0.31082 -0.85398 2.28998
						CHANNELS 3 Zrotation Yrotation Xrotation
						End Site
						{
							OFFSET -0.00000 -0.00000 1.21611
						}
					}
				}
			}
		}
	}
	JOINT lowerback
	{
		OFFSET 0 0 0
		CHANNELS 3 Zrotation Yrotation Xrotation
		JOINT Chest
		{
			OFFSET -0.00160 2.05581 -0.15156
			CHANNELS 3 Zrotation Yrotation Xrotation
			JOINT Chest2
			{
				OFFSET 0.04594 2.06326 -0.01617
				CHANNELS 3 Zrotation Yrotation Xrotation
				JOINT lowerneck
				{
					OFFSET 0 0 0
					CHANNELS 3 Zrotation Yrotation Xrotation
					JOINT Neck
					{
						OFFSET 0.03753 1.73883 0.26751
						CHANNELS 3 Zrotation Yrotation Xrotation
						JOINT Head
						{
							OFFSET -0.09795 1.76129 -0.31794
							CHANNELS 3 Zrotation Yrotation Xrotation
							End Site
							{
								OFFSET -0.03611 1.79987 -0.13846
							}
						}
					}
				}
				JOINT LeftCollar
				{
					OFFSET 0 0 0
					CHANNELS 3 Zrotation Yrotation Xrotation
					JOINT LeftShoulder
					{
						OFFSET 3.30667 1.29205 -0.22445
CHANNELS 3 Zrotation Xrotation Yrotation
						JOINT LeftElbow
						{
OFFSET 0 -4.927850 -0.000000
CHANNELS 3 Zrotation Xrotation Yrotation
							JOINT LeftWrist
							{
OFFSET 0 -3.440520 0.000000
CHANNELS 3 Zrotation Xrotation Yrotation
								JOINT lhand
								{
									OFFSET 0 0 0
CHANNELS 3 Zrotation Xrotation Yrotation
									JOINT LFingers
									{
OFFSET 0 -0.654330 0.000000
CHANNELS 3 Zrotation Xrotation Yrotation
										End Site
										{
OFFSET 0 -0.527530 0.000000
										}
									}
								}
								JOINT LThumb
								{
OFFSET 0 0.000000 0.000000
CHANNELS 3 Zrotation Xrotation Yrotation
									End Site
									{
OFFSET 0 -0.535590 0.535590
									}
								}
							}
						}
					}
				}
				JOINT RightCollar
				{
					OFFSET 0 0 0
					CHANNELS 3 Zrotation Yrotation Xrotation
					JOINT RightShoulder
					{
						OFFSET -3.20032 1.49783 -0.27688
CHANNELS 3 Zrotation Xrotation Yrotation
						JOINT RightElbow
						{
OFFSET 0 -5.091810 -0.000000
CHANNELS 3 Zrotation Xrotation Yrotation
							JOINT RightWrist
							{
OFFSET 0 -3.498650 -0.000000
CHANNELS 3 Zrotation Xrotation Yrotation
								JOINT rhand
								{
									OFFSET 0 0 0
CHANNELS 3 Zrotation Xrotation Yrotation
									JOINT RFingers
									{
OFFSET 0 -0.666410 0.000000
CHANNELS 3 Zrotation Xrotation Yrotation
										End Site
										{
OFFSET 0 -0.537280 0.000000
										}
									}
								}
								JOINT RThumb
								{
OFFSET 0 0.000000 0.000000
CHANNELS 3 Zrotation Xrotation Yrotation
									End Site
									{
OFFSET 0 -0.545480 0.545480
									}
								}
							}
						}
					}
				}
			}
		}
	}
}
MOTION
Frames: 14
Frame Time: .0083333
1.5078 17.8062 -7.3267 -8.0020 2.0623 6.8603 0.0000 0.0000 0.0000 -3.0306 -7.5019 -32.0821 3.2534 11.0944 32.5988 -0.3480 10.4600 -5.1529 0.2046 -2.9127 -8.0359 0.0000 0.0000 0.0000 21.2412 -1.0858 2.8658 -1.8472 -8.5402 24.3674 0.2998 -13.0660 -14.1849 -0.4198 4.1586 -11.5233 -2.5226 -0.6011 13.9937 1.3238 -1.0957 1.0313 3.0461 -0.4408 -6.6873 8.3821 2.2294 -18.1668 -7.9543 2.2242 13.0017 -3.7340 0.7597 7.1436 0.0000 0.0000 0.0000 46.2972 1.1056 25.8082 19.6279 -30.1915 5.343 19.9455 -10.4966 1.9652 0.0 0.0 0.0 -7.1250 0.0 0.0 -5.1191 27.8773 -2.1393 0.0000 0.0000 0.0000 -70.8855 8.4441 -35.2732 -16.9603 -26.8054 -4.0694 -21.0985 0.3527 4.1075 0.0 0.0 0.0 7.1250 0.0 -0.0 4.5670 34.3538 1.1964
1.5317 17.8242 -7.2338 -8.2081 2.2616 6.9053 0.0000 0.0000 0.0000 -2.9384 -7.5164 -31.8685 3.2669 11.1151 32.6691 -0.3421 10.4015 -5.3622 0.1958 -2.8492 -7.8591 0.0000 0.0000 0.0000 21.3434 -1.3180 2.6858 -1.9172 -8.6914 24.8347 0.3218 -12.8847 -13.4086 -0.4243 4.1808 -11.5858 -2.8869 -0.6851 13.9440 1.1135 -1.2780 0.9766 3.0637 -0.5210 -6.7022 8.3356 2.2280 -18.1817 -7.4159 2.1526 13.2939 -3.5583 0.7732 7.2278 -0.0000 -0.0000 0.0000 46.0183 0.9069 25.7108 19.5740 -30.1256 5.3159 19.9388 -10.5178 1.9965 0.0 0.0 0.0 -7.1250 0.0 0.0 -5.1230 27.8442 -2.145 -0.0000 -0.0000 0.0000 -70.8205 8.5081 -35.3077 -16.9170 -26.7482 -4.0499 -21.0858 0.3742 4.1776 0.0 0.0 0.0 7.1250 0.0 -0.0 4.5831 34.4282 1.1923
1.5556 17.8425 -7.1411 -8.4589 2.4702 6.9506 0.0000 0.0000 0.0000 -2.7887 -7.5464 -31.6499 3.2786 11.1329 32.7296 -0.3358 10.3474 -5.6118 0.1919 -2.8213 -7.7817 0.0000 0.0000 0.0000 21.5008 -1.5456 2.5130 -1.9831 -8.8308 25.2674 0.3451 -12.7296 -12.6001 -0.4224 4.1713 -11.5590 -3.1822 -0.7708 13.8763 0.9133 -1.4501 0.9358 3.0500 -0.5987 -6.6936 8.3100 2.2274 -18.1798 -6.8868 2.0742 13.5155 -3.3889 0.7847 7.2869 0.0000 -0.0000 0.0000 45.7273 0.6816 25.6261 19.5328 -30.0754 5.2952 19.9587 -10.5436 1.9926 0.0 0.0 0.0 -7.1250 0.0 0.0 -5.1079 27.8482 -2.1381 0.0000 -0.0000 0.0000 -70.7481 8.612 -35.2802 -16.8975 -26.7224 -4.0411 -21.0554 0.3311 4.2711 0.0 0.0 0.0 7.1250 0.0 -0.0 4.6157 34.5266 1.1898
1.5793 17.8607 -7.0490 -8.7507 2.6916 6.9957 0.0000 0.0000 0.0000 -2.5829 -7.5902 -31.4312 3.2886 11.1482 32.7813 -0.3289 10.2917 -5.8810 0.1925 -2.8254 -7.7929 0.0000 0.0000 0.0000 21.7126 -1.7669 2.3436 -2.0454 -8.9601 25.6705 0.3693 -12.6084 -11.7722 -0.4184 4.1516 -11.5037 -3.4200 -0.8560 13.8071 0.7275 -1.6111 0.8970 3.0164 -0.6724 -6.6834 8.2667 2.2138 -18.1860 -6.3470 1.9769 13.7016 -3.2146 0.7877 7.3349 0.0000 -0.0000 0.0000 45.4254 0.4345 25.5354 19.4976 -30.0323 5.2776 20.0047 -10.5375 1.942 0.0 0.0 0.0 -7.1250 0.0 0.0 -5.0744 27.9013 -2.1176 0.0000 -0.0000 0.0000 -70.6847 8.7517 -35.2309 -16.8779 -26.6966 -4.0323 -21.0169 0.2868 4.319 0.0 0.0 0.0 7.1250 0.0 -0.0 4.6514 34.5762 1.1934
1.6028 17.8788 -6.9576 -9.0668 2.8986 7.0379 0.0000 0.0000 0.0000 -2.3427 -7.6299 -31.2039 3.2967 11.1605 32.8232 -0.3218 10.2430 -6.1585 0.1953 -2.8457 -7.8495 0.0000 0.0000 0.0000 21.9544 -1.9619 2.1830 -2.1056 -9.0826 26.0541 0.3931 -12.5157 -10.9324 -0.4149 4.1347 -11.4560 -3.6218 -0.9303 13.7266 0.5531 -1.7502 0.8717 2.9696 -0.7372 -6.6546 8.2536 2.2041 -18.1597 -5.8399 1.8824 13.8258 -3.0551 0.7912 7.3589 -0.0000 -0.0000 0.0000 45.1041 0.1514 25.469 19.4614 -29.988 5.2595 20.0894 -10.4839 1.865 0.0 0.0 0.0 -7.1250 0.0 0.0 -5.0123 27.9822 -2.0819 -0.0000 -0.0000 0.0000 -70.6339 8.9269 -35.176 -16.8630 -26.6769 -4.0257 -20.952 0.2561 4.3585 0.0 0.0 0.0 7.1250 0.0 -0.0 4.7082 34.6155 1.2036
1.6266 17.8971 -6.8667 -9.3823 3.0810 7.0725 0.0000 0.0000 0.0000 -2.1032 -7.6541 -30.9570 3.3021 11.1688 32.8513 -0.3146 10.1996 -6.4361 0.2001 -2.8805 -7.9461 0.0000 0.0000 0.0000 22.1922 -2.1330 2.0349 -2.1651 -9.2018 26.4286 0.4149 -12.4391 -10.0855 -0.4128 4.1245 -11.4271 -3.8122 -0.9870 13.6485 0.3816 -1.8639 0.8483 2.9144 -0.7897 -6.6273 8.2489 2.1881 -18.1256 -5.3449 1.7786 13.9406 -2.9021 0.7899 7.3789 0.0000 0.0000 0.0000 44.7651 -0.1325 25.3814 19.4302 -29.9498 5.2439 20.1712 -10.3841 1.7959 0.0 0.0 0.0 -7.1250 0.0 0.0 -4.9519 28.0548 -2.0481 0.0000 0.0000 0.0000 -70.595 9.1423 -35.1308 -16.8422 -26.6493 -4.0163 -20.886 0.2298 4.2914 0.0 0.0 0.0 7.1250 0.0 -0.0 4.7569 34.5414 1.2247
1.6504 17.9153 -6.7767 -9.6911 3.2392 7.1030 0.0000 0.0000 0.0000 -1.8705 -7.6625 -30.6934 3.3038 11.1713 32.8598 -0.3077 10.1647 -6.7070 0.2060 -2.9226 -8.0632 0.0000 0.0000 0.0000 22.4220 -2.2758 1.8902 -2.2256 -9.3210 26.8046 0.4340 -12.3730 -9.2306 -0.4136 4.1281 -11.4374 -4.0040 -1.0301 13.5637 0.2147 -1.9583 0.8373 2.8607 -0.8334 -6.5842 8.2598 2.1713 -18.0850 -4.8755 1.6731 14.0134 -2.7600 0.7862 7.3851 -0.0000 0.0000 0.0000 44.4148 -0.4235 25.2878 19.3984 -29.9107 5.228 20.264 -10.2651 1.7398 0.0 0.0 0.0 -7.1250 0.0 0.0 -4.8826 28.1135 -2.0124 -0.0000 0.0000 0.0000 -70.5693 9.3592 -35.1443 -16.8187 -26.6181 -4.0057 -20.8006 0.242 4.2082 0.0 0.0 0.0 7.1250 0.0 -0.0 4.8200 34.4493 1.2519
1.6745 17.9335 -6.6872 -9.9706 3.3731 7.1251 0.0000 0.0000 0.0000 -1.6779 -7.6477 -30.4056 3.3009 11.1669 32.8449 -0.3008 10.1353 -6.9736 0.2121 -2.9648 -8.1808 0.0000 0.0000 0.0000 22.6130 -2.4000 1.7531 -2.2885 -9.4428 27.1905 0.4496 -12.3087 -8.3567 -0.4113 4.1170 -11.4061 -4.2136 -1.0580 13.4775 0.0455 -2.0348 0.8289 2.8110 -0.8680 -6.5385 8.2503 2.1468 -18.0373 -4.3987 1.5616 14.0981 -2.6131 0.7796 7.3941 0.0000 0.0000 0.0000 44.051 -0.6909 25.1517 19.3717 -29.878 5.2147 20.3511 -10.1577 1.7213 0.0 0.0 0.0 -7.1250 0.0 0.0 -4.8160 28.1325 -1.9826 0.0000 0.0000 0.0000 -70.5585 9.5907 -35.182 -16.8006 -26.5941 -3.9977 -20.7461 0.2487 4.1441 0.0 0.0 0.0 7.1250 0.0 -0.0 4.8594 34.3789 1.2705
1.6985 17.9517 -6.5985 -10.2096 3.4908 7.1422 0.0000 0.0000 0.0000 -1.5354 -7.6257 -30.0938 3.2930 11.1550 32.8043 -0.2947 10.1216 -7.2366 0.2176 -3.0029 -8.2869 0.0000 0.0000 0.0000 22.7555 -2.5142 1.6140 -2.3550 -9.5694 27.5934 0.4608 -12.2403 -7.4756 -0.4067 4.0942 -11.3419 -4.4533 -1.0774 13.3911 -0.1280 -2.1042 0.8244 2.7722 -0.8984 -6.4880 8.2578 2.1258 -17.9924 -3.9505 1.4547 14.1742 -2.4779 0.7734 7.4022 0.0000 -0.0000 0.0000 43.6807 -0.9379 25.0111 19.3441 -29.844 5.201 20.3755 -10.0744 1.7821 0.0 0.0 0.0 -7.1250 0.0 0.0 -4.7947 28.0676 -1.9812 0.0000 -0.0000 0.0000 -70.5678 9.809 -35.274 -16.7778 -26.5639 -3.9875 -20.7018 0.2879 4.0717 0.0 0.0 0.0 7.1250 0.0 -0.0 4.8896 34.3 1.2878
1.7222 17.9699 -6.5107 -10.4111 3.5937 7.1524 0.0000 0.0000 0.0000 -1.4377 -7.5952 -29.7581 3.2801 11.1353 32.7375 -0.2893 10.1215 -7.4919 0.2225 -3.0363 -8.3799 0.0000 0.0000 0.0000 22.8567 -2.6129 1.4742 -2.4258 -9.7017 28.0160 0.4687 -12.1825 -6.5855 -0.3934 4.0275 -11.1541 -4.7243 -1.0934 13.3177 -0.3059 -2.1741 0.8176 2.7467 -0.9282 -6.4462 8.2345 2.1017 -17.9500 -3.4864 1.3481 14.2479 -2.3324 0.7673 7.4103 -0.0000 -0.0000 0.0000 43.3062 -1.1415 24.8731 19.3194 -29.8137 5.1887 20.3521 -10.0025 1.905 0.0 0.0 0.0 -7.1250 0.0 0.0 -4.8081 27.9373 -2.0016 -0.0000 -0.0000 0.0000 -70.5983 10.0136 -35.3646 -16.7589 -26.5388 -3.979 -20.6697 0.2935 3.9917 0.0 0.0 0.0 7.1250 0.0 -0.0 4.9093 34.2136 1.3033
1.7453 17.9881 -6.4241 -10.5794 3.6936 7.1617 0.0000 0.0000 0.0000 -1.3777 -7.5651 -29.4094 3.2626 11.1085 32.6467 -0.2843 10.1276 -7.7365 0.2272 -3.0682 -8.4687 0.0000 0.0000 0.0000 22.9220 -2.7074 1.3244 -2.5007 -9.8391 28.4572 0.4727 -12.1303 -5.7001 -0.3701 3.9076 -10.8168 -5.0158 -1.1134 13.2600 -0.4894 -2.2534 0.8032 2.7292 -0.9614 -6.4198 8.2056 2.0801 -17.8803 -3.0234 1.2484 14.2828 -2.1855 0.7637 7.4022 0.0000 0.0000 0.0000 42.9294 -1.2947 24.7424 19.3030 -29.7935 5.1806 20.2987 -9.9475 2.0541 0.0 0.0 0.0 -7.1250 0.0 0.0 -4.8436 27.7794 -2.0346 0.0000 0.0000 0.0000 -70.6434 10.2028 -35.4321 -16.7508 -26.5281 -3.9754 -20.6367 0.2897 3.9689 0.0 0.0 0.0 7.1250 0.0 -0.0 4.9344 34.1882 1.3131
1.7676 18.0062 -6.3388 -10.7210 3.7915 7.1698 0.0000 0.0000 0.0000 -1.3445 -7.5374 -29.0513 3.2413 11.0757 32.5358 -0.2795 10.1375 -7.9708 0.2317 -3.0982 -8.5521 0.0000 0.0000 0.0000 22.9641 -2.7907 1.1679 -2.5788 -9.9798 28.9112 0.4741 -12.0993 -4.8240 -0.3418 3.7570 -10.3939 -5.3239 -1.1403 13.2237 -0.6794 -2.3461 0.7809 2.7170 -0.9999 -6.4122 8.1958 2.0668 -17.8025 -2.5820 1.1598 14.3259 -2.0478 0.7645 7.3969 -0.0000 0.0000 0.0000 42.5691 -1.393 24.6284 19.2919 -29.7798 5.175 20.2185 -9.9101 2.1923 0.0 0.0 0.0 -7.1250 0.0 0.0 -4.9002 27.6335 -2.0755 -0.0000 0.0000 0.0000 -70.6932 10.3797 -35.4382 -16.7605 -26.5409 -3.9797 -20.6253 0.2231 3.947 0.0 0.0 0.0 7.1250 0.0 -0.0 4.9418 34.1644 1.318
1.7894 18.0242 -6.2543 -10.8553 3.8712 7.1724 0.0000 0.0000 0.0000 -1.3176 -7.4975 -28.6799 3.2175 11.0391 32.4118 -0.2748 10.1512 -8.2026 0.2362 -3.1275 -8.6340 0.0000 0.0000 0.0000 23.0004 -2.8552 1.0133 -2.6591 -10.1217 29.3717 0.4725 -12.0839 -3.9446 -0.3152 3.6090 -9.9791 -5.6274 -1.1679 13.1922 -0.8714 -2.4390 0.7592 2.7000 -1.0387 -6.4065 8.2186 2.0698 -17.7440 -2.1782 1.0897 14.3799 -1.9258 0.7726 7.4005 0.0000 -0.0000 0.0000 42.2184 -1.449 24.5373 19.2878 -29.7748 5.173 20.1462 -9.8966 2.2826 0.0 0.0 0.0 -7.1250 0.0 0.0 -4.9525 27.5386 -2.1089 0.0000 -0.0000 0.0000 -70.7511 10.5439 -35.4058 -16.7816 -26.5689 -3.9891 -20.6184 0.1605 3.9789 0.0 0.0 0.0 7.1250 0.0 -0.0 4.9503 34.1981 1.3162
1.8108 18.0420 -6.1705 -10.9821 3.9361 7.1665 0.0000 0.0000 0.0000 -1.2982 -7.4514 -28.2928 3.1923 11.0001 32.2802 -0.2699 10.1687 -8.4363 0.2399 -3.1523 -8.7032 0.0000 0.0000 0.0000 23.0294 -2.9101 0.8650 -2.7406 -10.2628 29.8321 0.4679 -12.0881 -3.0622 -0.2907 3.4669 -9.5816 -5.9203 -1.1960 13.1736 -1.0656 -2.5320 0.7364 2.6750 -1.0775 -6.4097 8.2314 2.0760 -17.7069 -1.7674 1.0229 14.4751 -1.7998 0.7832 7.4220 0.0000 -0.0000 0.0000 41.8811 -1.4703 24.4714 19.2846 -29.7708 5.1714 20.0994 -9.893 2.3049 0.0 0.0 0.0 -7.1250 0.0 0.0 -4.9877 27.5155 -2.1267 0.0000 -0.0000 0.0000 -70.8156 10.6978 -35.3398 -16.8135 -26.6112 -4.0034 -20.6291 0.0719 4.0324 0.0 0.0 0.0 7.1250 0.0 -0.0 4.9460 34.2554 1.3081
